# AST/ASF file generated using VICON BodyLanguage
# -----------------------------------------------
:version 1.10
:name VICON
:units
  mass 1.0
  length 0.45
  angle deg
:documentation
   .ast/.asf automatically generated from VICON data using
   VICON BodyBuilder and BodyLanguage model FoxedUp or BRILLIANT.MOD
:root
   order TX TY TZ RX RY RZ
   axis XYZ
   position 0 0 0  
   orientation 0 0 0 
:bonedata
  begin
     id 1 
     name lhipjoint
     direction 0.710188 -0.616876 0.339259 
     length 2.5669 
     axis 0 0 0  XYZ
  end
  begin
     id 2 
     name lfemur
     direction 0.34202 -0.939693 0  
     length 7.12796  
     axis 0 0 20  XYZ
    dof rx ry rz
    limits (-160.0 20.0)
           (-70.0 70.0)
           (-60.0 70.0)
  end
  begin
     id 3 
     name ltibia
     direction 0.34202 -0.939693 0   
     length 7.58108   
     axis 0 0 20   XYZ
    dof rx
    limits (-10.0 170.0)
  end
  begin
     id 4 
     name lfoot
     direction 0.0669471 -0.183936 0.980656   
     length 2.17365   
     axis -90 7.62852e-016 20   XYZ
    dof rx rz
    limits (-45.0 90.0)
           (-70.0 20.0)
  end
  begin
     id 5 
     name ltoes
     direction 1.53508e-011 -4.21705e-011 1   
     length 1.09427   
     axis -90 7.62852e-016 20   XYZ
    dof rx
    limits (-90.0 20.0)
  end
  begin
     id 6 
     name rhipjoint
     direction -0.700191 -0.625589 0.34405   
     length 2.53115  
     axis 0 0 0  XYZ 
  end
  begin
     id 7 
     name rfemur
     direction -0.34202 -0.939693 0   
     length 7.33006   
     axis 0 0 -20   XYZ
    dof rx ry rz
    limits (-160.0 20.0)
           (-70.0 70.0)
           (-70.0 60.0)
  end
  begin
     id 8 
     name rtibia
     direction -0.34202 -0.939693 0   
     length 7.64926   
     axis 0 0 -20   XYZ
    dof rx
    limits (-10.0 170.0)
 end
 begin
     id 9 
     name rfoot
     direction -0.0688927 -0.189281 0.979503   
     length 2.20493  
     axis -90 -7.62852e-016 -20   XYZ
    dof rx rz
    limits (-45.0 90.0)
           (-20.0 70.0)
  end
  begin
     id 10 
     name rtoes
     direction -1.53567e-011 -4.21933e-011 1   
     length 1.10919   
     axis -90 -7.62852e-016 -20   XYZ
    dof rx
    limits (-90.0 20.0)
  end
  begin
     id 11 
     name lowerback
     direction -0.0167868 0.989873 -0.140959   
     length 2.14596   
     axis 0 0 0   XYZ
    dof rx ry rz
    limits (-20.0 45.0)
           (-30.0 30.0)
           (-30.0 30.0)
  end
  begin
     id 12 
     name upperback
     direction 0.0129109 0.998033 0.0613525   
     length 2.10457   
     axis 0 0 0   XYZ
    dof rx ry rz
    limits (-20.0 45.0)
           (-30.0 30.0)
           (-30.0 30.0)
  end
  begin
     id 13 
     name thorax
     direction 0.0177047 0.991119 0.131797   
     length 2.17652   
     axis 0 0 0   XYZ
    dof rx ry rz
    limits (-20.0 45.0)
           (-30.0 30.0)
           (-30.0 30.0)
  end
  begin
     id 14 
     name lowerneck
     direction -0.0336893 0.997548 0.0613464   
     length 1.8912   
     axis 0 0 0   XYZ
    dof rx ry rz
    limits (-20.0 45.0)
           (-30.0 30.0)
           (-30.0 30.0)
  end
  begin
     id 15 
     name upperneck
     direction 0.0435909 0.997179 -0.0611028   
     length 1.8829   
     axis 0 0 0   XYZ
    dof rx ry rz
    limits (-20.0 45.0)
           (-30.0 30.0)
           (-30.0 30.0)
  end
  begin
     id 16
     name head
     direction 0.0175076 0.999444 -0.0283782  
     length 1.93197  
     axis 0 0 0   XYZ
    dof rx ry rz
    limits (-20.0 45.0)
           (-30.0 30.0)
           (-30.0 30.0)
  end
  begin
     id 17 
     name lclavicle
     direction 0.919164 0.389875 0.0559876  
     length 3.60004  
     axis 0 0 0   XYZ
    dof ry rz
    limits (-20.0 10.0)
           (0.0 20.0)
  end
  begin
     id 18 
     name lhumerus
     direction 1 -4.48958e-011 6.89191e-027   
     length 5.43301   
     axis 180 -30 -90   XYZ
    dof rx ry rz
    limits (-60.0 90.0)
           (-90.0 90.0)
           (-90.0 90.0)
  end
  begin
     id 19
     name lradius
     direction 1 -4.4897e-011 3.24727e-027   
     length 3.15936   
     axis 180 -30 -90   XYZ
    dof rx
    limits (-10.0 170.0)
  end
  begin
     id 20
     name lwrist
     direction 1 -4.4897e-011 9.00228e-027   
     length 1.57968   
     axis -6.29373e-015 90 90   XYZ
    dof ry
    limits (-180.0 0.0)
 end
  begin
     id 21 
     name lhand
     direction 1 -4.48968e-011 1.80042e-026   
     length 0.712827   
     axis -1.14882e-014 90 90   XYZ
    dof rx rz
    limits (-90.0 90.0)
           (-45.0 45.0)
  end
  begin
     id 22 
     name lfingers
     direction 1 -4.49019e-011 3.60267e-026   
     length 0.574699   
     axis -2.29769e-014 90 90   XYZ
    dof rx
    limits (0.0 90.0)
  end
  begin
     id 23
     name lthumb
     direction 0.707107 -6.3498e-011 0.707107   
     length 0.825157   
     axis -90 45 5.37419e-014   XYZ
    dof rx rz
    limits (-45.0 45.0)
           (-45.0 45.0)
  end
  begin
     id 24 
     name rclavicle
     direction -0.890334 0.455305 -0.00132111   
     length 3.51494  
     axis 0 0 0   XYZ 
    dof ry rz
    limits (-10.0 20.0)
           (-20.0 0.0)
  end
  begin
     id 25 
     name rhumerus
     direction -1 -4.48967e-011 5.07175e-028  
     length 5.34194   
     axis 180 30 90   XYZ
    dof rx ry rz
    limits (-90.0 60.0)
           (-90.0 90.0)
           (-90.0 90.0)
  end
  begin
     id 26 
     name rradius
     direction -1 -4.48955e-011 3.30467e-027   
     length 3.19351   
     axis 180 30 90   XYZ
    dof rx
    limits (-10.0 170.0)
  end
  begin
     id 27 
     name rwrist
     direction -1 -4.48968e-011 9.00208e-027   
     length 1.59676   
     axis -6.29373e-015 -90 -90   XYZ
    dof ry
    limits (-180.0 0.0)
  end
  begin
     id 28
     name rhand
     direction -1 -4.49e-011 1.80099e-026   
     length 0.743862   
     axis -1.14882e-014 -90 -90   XYZ
    dof rx rz
    limits (-90.0 90.0)
           (-45.0 45.0)
  end
  begin
     id 29
     name rfingers
     direction -1 -4.49009e-011 3.6023e-026   
     length 0.599721   
     axis -2.29769e-014 -90 -90   XYZ
    dof rx
    limits (0.0 90.0)
  end
  begin
     id 30
     name rthumb
     direction -0.707107 -6.35025e-011 0.707107   
     length 0.861083   
     axis -90 -45 -5.37419e-014   XYZ
    dof rx rz
    limits (-45.0 45.0)
           (-45.0 45.0)
  end
:hierarchy
  begin
    root lhipjoint rhipjoint lowerback
    lhipjoint lfemur
    lfemur ltibia
    ltibia lfoot
    lfoot ltoes
    rhipjoint rfemur
    rfemur rtibia
    rtibia rfoot
    rfoot rtoes
    lowerback upperback
    upperback thorax
    thorax lowerneck lclavicle rclavicle
    lowerneck upperneck
    upperneck head
    lclavicle lhumerus
    lhumerus lradius
    lradius lwrist
    lwrist lhand lthumb
    lhand lfingers
    rclavicle rhumerus
    rhumerus rradius
    rradius rwrist
    rwrist rhand rthumb
    rhand rfingers
  end

#!OML:ASF H:\Martial Arts Walks\Project 1\Capture day 1\Session 1\male.ASF
:FULLY-SPECIFIED
:DEGREES
516
root -0.992623 13.8588 -4.47663 2.50572 -30.7757 -15.3235
lowerback 16.3557 5.64469 9.60408
upperback 0.833557 9.60287 4.99526
thorax -7.53874 4.36797 -2.06434
lowerneck -2.10086 0.939301 -2.06537
upperneck 6.05601 1.14891 3.24864
head 2.24006 0.610125 1.41798
rclavicle 1.53412e-013 7.23576e-014
rhumerus -36.9751 21.1125 -78.93
rradius 48.6327
rwrist 12.022
rhand -4.94288 -42.0637
rfingers 7.12502
rthumb 20.8483 -70.9635
lclavicle 1.53412e-013 7.23576e-014
lhumerus -22.6022 -7.56956 84.7647
lradius 28.6102
lwrist -15.3496
lhand -22.3931 23.0776
lfingers 7.12502
lthumb 4.0292 53.0192
rfemur 12.6893 -2.62712 10.2802
rtibia 41.6867
rfoot -25.7889 -27.4766
rtoes -23.6284
lfemur -54.8396 34.5739 -1.89834
ltibia 77.2858
lfoot -14.2703 -2.46282
ltoes 4.60886
517
root -0.997829 13.8528 -4.46751 2.57237 -30.7168 -15.3883
lowerback 16.3086 5.64381 9.59904
upperback 0.83731 9.59588 5.01611
thorax -7.5137 4.36697 -2.03269
lowerneck -2.08536 0.951331 -2.1505
upperneck 6.01371 1.16305 3.35692
head 2.22279 0.617864 1.46753
rclavicle -5.29513e-014 -3.57812e-014
rhumerus -37.0423 21.119 -78.9558
rradius 48.6515
rwrist 11.9835
rhand -4.94224 -42.1098
rfingers 7.12502
rthumb 20.8489 -71.0096
lclavicle -5.29513e-014 -3.57812e-014
lhumerus -22.614 -7.57614 84.7951
lradius 28.5994
lwrist -15.3137
lhand -22.4634 23.0053
lfingers 7.12502
lthumb 3.96132 52.9482
rfemur 12.722 -2.6665 10.3506
rtibia 41.6629
rfoot -25.7981 -27.5373
rtoes -23.7585
lfemur -54.9372 34.5579 -1.85088
ltibia 77.3991
lfoot -14.3459 -2.48517
ltoes 4.46987
518
root -1.00243 13.8485 -4.45685 2.58274 -30.7055 -15.4005
lowerback 16.294 5.6695 9.56161
upperback 0.855791 9.61956 5.02244
thorax -7.49028 4.38179 -2.00802
lowerneck -2.06339 0.936434 -2.17723
upperneck 5.96869 1.14255 3.39826
head 2.20461 0.607857 1.48425
rclavicle 2.92959e-014 6.55989e-015
rhumerus -37.0818 21.0721 -78.9617
rradius 48.6341
rwrist 11.9656
rhand -4.97052 -42.0386
rfingers 7.12502
rthumb 20.8217 -70.9413
lclavicle 2.92959e-014 6.55989e-015
lhumerus -22.6218 -7.63711 84.8465
lradius 28.611
lwrist -15.256
lhand -22.348 23.0363
lfingers 7.12502
lthumb 4.07273 52.9771
rfemur 12.7795 -2.68492 10.3451
rtibia 41.6468
rfoot -25.8603 -27.5208
rtoes -23.7624
lfemur -54.9613 34.5889 -1.83508
ltibia 77.4966
lfoot -14.401 -2.46164
ltoes 4.26223
519
root -1.00691 13.8445 -4.44762 2.63334 -30.6962 -15.4785
lowerback 16.2643 5.6779 9.5963
upperback 0.882064 9.6302 5.03286
thorax -7.44028 4.38932 -2.01197
lowerneck -2.01554 0.91985 -2.15117
upperneck 5.89045 1.1217 3.37411
head 2.1709 0.596859 1.46972
rclavicle -2.16427e-014 -1.11319e-014
rhumerus -37.0695 21.0477 -78.9851
rradius 48.582
rwrist 11.9371
rhand -4.96234 -42.0314
rfingers 7.12502
rthumb 20.8296 -70.9332
lclavicle -2.16427e-014 -1.11319e-014
lhumerus -22.5808 -7.61353 84.8577
lradius 28.567
lwrist -15.2753
lhand -22.3139 23.0972
lfingers 7.12502
lthumb 4.10567 53.0374
rfemur 12.8075 -2.68547 10.4279
rtibia 41.6359
rfoot -25.851 -27.5724
rtoes -23.8054
lfemur -55.0066 34.6348 -1.76484
ltibia 77.5883
lfoot -14.4279 -2.44873
ltoes 4.27726
520
root -1.01121 13.8414 -4.43585 2.62639 -30.7253 -15.4555
lowerback 16.2555 5.71196 9.57005
upperback 0.892505 9.6658 5.00407
thorax -7.41955 4.40863 -2.03339
lowerneck -1.98208 0.890026 -2.10863
upperneck 5.85096 1.08116 3.36118
head 2.15317 0.576905 1.45622
rclavicle 9.11925e-014 4.77083e-014
rhumerus -37.101 20.9545 -79.0225
rradius 48.5047
rwrist 11.9455
rhand -5.00226 -42.0409
rfingers 7.12502
rthumb 20.7912 -70.947
lclavicle 9.11925e-014 4.77083e-014
lhumerus -22.5811 -7.69062 84.8768
lradius 28.5551
lwrist -15.1948
lhand -22.2809 23.1654
lfingers 7.12502
lthumb 4.13751 53.1049
rfemur 12.8557 -2.66399 10.3882
rtibia 41.6177
rfoot -25.9696 -27.5127
rtoes -23.7318
lfemur -55.0036 34.7135 -1.78557
ltibia 77.6696
lfoot -14.4719 -2.4272
ltoes 4.28689
